<svg xmlns="http://www.w3.org/2000/svg" xmlns:xlink="http://www.w3.org/1999/xlink" xmlns:lucid="lucid" width="1400" height="933.33"><g transform="translate(-240 -216.6666666666667)" lucid:page-tab-id="0_0"><path d="M0 0h1870.87v1322.83H0z" fill="#fff"/><path d="M660 420h40v40h-40z" fill="none"/><path d="M700 440c0 11.05-8.95 20-20 20s-20-8.95-20-20 8.95-20 20-20 20 8.95 20 20m-34-14l28 28m0-28l-28 28" stroke="#5e5e5e" stroke-width="3" fill="#fff"/><path d="M660 660h40v40h-40z" fill="none"/><path d="M700 680c0 11.05-8.95 20-20 20s-20-8.95-20-20 8.95-20 20-20 20 8.95 20 20m-34-14l28 28m0-28l-28 28" stroke="#5e5e5e" stroke-width="3" fill="#fff"/><path d="M280 298.67c0-3.32 2.7-6 6-6h188c3.3 0 6 2.68 6 6v72.66c0 3.32-2.7 6-6 6H286c-3.3 0-6-2.68-6-6z" stroke="#000" stroke-opacity="0" stroke-width="3" fill="#fff" fill-opacity="0"/><use xlink:href="#a" transform="matrix(1,0,0,1,285,297.6666666666667) translate(6.938271604938279 43.638888888888886)"/><use xlink:href="#b" transform="matrix(1,0,0,1,285,297.6666666666667) translate(84.71604938271604 43.638888888888886)"/><path d="M260 1066c0-3.3 2.7-6 6-6h208c3.3 0 6 2.7 6 6v58c0 3.3-2.7 6-6 6H266c-3.3 0-6-2.7-6-6z" stroke="#000" stroke-opacity="0" stroke-width="3" fill="#fff" fill-opacity="0"/><use xlink:href="#a" transform="matrix(1,0,0,1,265,1065) translate(22.944444444444457 36.138888888888886)"/><use xlink:href="#c" transform="matrix(1,0,0,1,265,1065) translate(100.72222222222221 36.138888888888886)"/><path d="M280 506c0-3.3 2.7-6 6-6h188c3.3 0 6 2.7 6 6v58c0 3.3-2.7 6-6 6H286c-3.3 0-6-2.7-6-6z" stroke="#000" stroke-opacity="0" stroke-width="3" fill="#fff" fill-opacity="0"/><use xlink:href="#d" transform="matrix(1,0,0,1,285,505) translate(39.820987654320994 36.138888888888886)"/><path d="M280 571c0-3.3 2.7-6 6-6h188c3.3 0 6 2.7 6 6v58c0 3.3-2.7 6-6 6H286c-3.3 0-6-2.7-6-6z" stroke="#000" stroke-opacity="0" stroke-width="3" fill="#fff" fill-opacity="0"/><use xlink:href="#e" transform="matrix(1,0,0,1,285,570) translate(45.82716049382716 36.13888888888889)"/><path d="M280 651c0-3.3 2.7-6 6-6h168c3.3 0 6 2.7 6 6v58c0 3.3-2.7 6-6 6H286c-3.3 0-6-2.7-6-6z" stroke="#000" stroke-opacity="0" stroke-width="3" fill="#fff" fill-opacity="0"/><use xlink:href="#f" transform="matrix(1,0,0,1,285,650) translate(2.9444444444444287 36.13888888888889)"/><use xlink:href="#g" transform="matrix(1,0,0,1,285,650) translate(80.72222222222221 36.13888888888889)"/><path d="M280 398.67c0-3.32 2.7-6 6-6h188c3.3 0 6 2.68 6 6v72.66c0 3.32-2.7 6-6 6H286c-3.3 0-6-2.68-6-6z" stroke="#000" stroke-opacity="0" stroke-width="3" fill="#fff" fill-opacity="0"/><use xlink:href="#a" transform="matrix(1,0,0,1,285,397.6666666666667) translate(6.938271604938279 43.638888888888886)"/><use xlink:href="#h" transform="matrix(1,0,0,1,285,397.6666666666667) translate(84.71604938271604 43.638888888888886)"/><path d="M481 435h159.6" stroke="#5e5e5e" stroke-width="2" fill="none"/><path d="M481.03 436H480v-2h1.03" fill="#5e5e5e"/><path d="M655.88 435l-14.27 4.64v-9.28z" stroke="#5e5e5e" stroke-width="2" fill="#5e5e5e"/><path d="M481 535h193c3.3 0 6-2.7 6-6v-49" stroke="#5e5e5e" stroke-width="2" fill="none"/><path d="M481.03 536H480v-2h1.03" fill="#5e5e5e"/><path d="M680 464.74l4.64 14.26h-9.28z" stroke="#5e5e5e" stroke-width="2" fill="#5e5e5e"/><path d="M471 680h169M470 680" stroke="#5e5e5e" stroke-width="2" fill="none"/><path d="M655.26 680L641 684.64v-9.28z" stroke="#5e5e5e" stroke-width="2" fill="#5e5e5e"/><path d="M481 600h193c3.3 0 6 2.7 6 6v34" stroke="#5e5e5e" stroke-width="2" fill="none"/><path d="M481.03 601H480v-2h1.03" fill="#5e5e5e"/><path d="M680 655.26L675.36 641h9.28z" stroke="#5e5e5e" stroke-width="2" fill="#5e5e5e"/><path d="M800 546c0-3.3 2.7-6 6-6h33c3.3 0 6 2.7 6 6v33c0 3.3-2.7 6-6 6h-33c-3.3 0-6-2.7-6-6z" stroke="#5e5e5e" stroke-width="3" fill="#fff"/><path d="M701 440h115.5c3.3 0 6 2.7 6 6v74" stroke="#5e5e5e" stroke-width="2" fill="none"/><path d="M701.03 440.13L700 440l1.03-.04" fill="#5e5e5e"/><path d="M822.5 535.26L817.86 521h9.28z" stroke="#5e5e5e" stroke-width="2" fill="#5e5e5e"/><path d="M701 680h115.5c3.3 0 6-2.7 6-6v-69" stroke="#5e5e5e" stroke-width="2" fill="none"/><path d="M701.03 680.13L700 680l1.03-.04" fill="#5e5e5e"/><path d="M822.5 589.74l4.64 14.26h-9.28z" stroke="#5e5e5e" stroke-width="2" fill="#5e5e5e"/><path d="M847.5 562.5h209c3.3 0 6-2.7 6-6V465" stroke="#5e5e5e" stroke-width="2" fill="none"/><path d="M847.53 563.5h-1.03v-2h1.03" fill="#5e5e5e"/><path d="M1062.5 449.74l4.64 14.26h-9.28z" stroke="#5e5e5e" stroke-width="2" fill="#5e5e5e"/><path d="M1040 406c0-3.3 2.7-6 6-6h33c3.3 0 6 2.7 6 6v33c0 3.3-2.7 6-6 6h-33c-3.3 0-6-2.7-6-6z" stroke="#5e5e5e" stroke-width="3" fill="#fff"/><path d="M1047.5 407.5h30v30h-30z" fill="none"/><path d="M1062.5 407.5v30m-15-15h30" stroke="#5e5e5e" stroke-width="3" fill="#5e5e5e"/><path d="M1047.5 407.5h30v30h-30z" fill="none"/><path d="M1180 476c0-3.3 2.7-6 6-6h33c3.3 0 6 2.7 6 6v33c0 3.3-2.7 6-6 6h-33c-3.3 0-6-2.7-6-6z" stroke="#5e5e5e" stroke-width="3" fill="#fff"/><path d="M481 335h575.5c3.3 0 6 2.7 6 6v39" stroke="#5e5e5e" stroke-width="2" fill="none"/><path d="M481.03 336H480v-2h1.03" fill="#5e5e5e"/><path d="M1062.5 395.26l-4.64-14.26h9.28z" stroke="#5e5e5e" stroke-width="2" fill="#5e5e5e"/><path d="M1187.5 477.5h30v30h-30z" fill="none"/><path d="M1187.5 492.5h30" stroke="#5e5e5e" stroke-width="3" fill="#5e5e5e"/><path d="M481 335h715.5c3.3 0 6 2.7 6 6v109" stroke="#5e5e5e" stroke-width="2" fill="none"/><path d="M481.03 336H480v-2h1.03" fill="#5e5e5e"/><path d="M1202.5 465.26l-4.64-14.26h9.28z" stroke="#5e5e5e" stroke-width="2" fill="#5e5e5e"/><path d="M847.5 562.5h349c3.3 0 6-2.7 6-6V535" stroke="#5e5e5e" stroke-width="2" fill="none"/><path d="M847.53 563.5h-1.03v-2h1.03" fill="#5e5e5e"/><path d="M1202.5 519.74l4.64 14.26h-9.28z" stroke="#5e5e5e" stroke-width="2" fill="#5e5e5e"/><path d="M1227.5 492.5h194" stroke="#5e5e5e" stroke-width="2" fill="none"/><path d="M1227.53 493.5h-1.03v-2h1.03" fill="#5e5e5e"/><path d="M1436.76 492.5l-14.26 4.64v-9.28z" stroke="#5e5e5e" stroke-width="2" fill="#5e5e5e"/><path d="M1087.5 422.5h334" stroke="#5e5e5e" stroke-width="2" fill="none"/><path d="M1087.53 423.5h-1.03v-2h1.03" fill="#5e5e5e"/><path d="M1436.76 422.5l-14.26 4.64v-9.28z" stroke="#5e5e5e" stroke-width="2" fill="#5e5e5e"/><path d="M660 740h40v40h-40z" fill="none"/><path d="M700 760c0 11.05-8.95 20-20 20s-20-8.95-20-20 8.95-20 20-20 20 8.95 20 20m-34-14l28 28m0-28l-28 28" stroke="#5e5e5e" stroke-width="3" fill="#fff"/><path d="M660 965h40v40h-40z" fill="none"/><path d="M700 985c0 11.05-8.95 20-20 20s-20-8.95-20-20 8.95-20 20-20 20 8.95 20 20m-34-14l28 28m0-28l-28 28" stroke="#5e5e5e" stroke-width="3" fill="#fff"/><path d="M280 786c0-3.3 2.7-6 6-6h188c3.3 0 6 2.7 6 6v58c0 3.3-2.7 6-6 6H286c-3.3 0-6-2.7-6-6z" stroke="#000" stroke-opacity="0" stroke-width="3" fill="#fff" fill-opacity="0"/><use xlink:href="#i" transform="matrix(1,0,0,1,285,785) translate(39.82098765432098 36.13888888888889)"/><path d="M280 863.5c0-3.3 2.7-6 6-6h168c3.3 0 6 2.7 6 6v58c0 3.3-2.7 6-6 6H286c-3.3 0-6-2.7-6-6z" stroke="#000" stroke-opacity="0" stroke-width="3" fill="#fff" fill-opacity="0"/><use xlink:href="#e" transform="matrix(1,0,0,1,285,862.5) translate(35.82716049382716 36.13888888888889)"/><path d="M280 948.67c0-3.32 2.7-6 6-6h188c3.3 0 6 2.68 6 6v72.66c0 3.32-2.7 6-6 6H286c-3.3 0-6-2.68-6-6z" stroke="#000" stroke-opacity="0" stroke-width="3" fill="#fff" fill-opacity="0"/><use xlink:href="#a" transform="matrix(1,0,0,1,285,947.6666666666666) translate(6.938271604938279 43.638888888888886)"/><use xlink:href="#h" transform="matrix(1,0,0,1,285,947.6666666666666) translate(84.71604938271604 43.638888888888886)"/><path d="M481 815h193c3.3 0 6-2.7 6-6v-9" stroke="#5e5e5e" stroke-width="2" fill="none"/><path d="M481.03 816H480v-2h1.03" fill="#5e5e5e"/><path d="M680 784.74l4.64 14.26h-9.28z" stroke="#5e5e5e" stroke-width="2" fill="#5e5e5e"/><path d="M481 985h159" stroke="#5e5e5e" stroke-width="2" fill="none"/><path d="M481.03 986H480v-2h1.03" fill="#5e5e5e"/><path d="M655.26 985L641 989.64v-9.28z" stroke="#5e5e5e" stroke-width="2" fill="#5e5e5e"/><path d="M461 892.5h213c3.3 0 6 2.7 6 6V945" stroke="#5e5e5e" stroke-width="2" fill="none"/><path d="M461.03 893.5H460v-2h1.03" fill="#5e5e5e"/><path d="M680 960.26L675.36 946h9.28z" stroke="#5e5e5e" stroke-width="2" fill="#5e5e5e"/><path d="M800 846c0-3.3 2.7-6 6-6h33c3.3 0 6 2.7 6 6v33c0 3.3-2.7 6-6 6h-33c-3.3 0-6-2.7-6-6z" stroke="#5e5e5e" stroke-width="3" fill="#fff"/><path d="M807.5 847.5h30v30h-30z" fill="none"/><path d="M822.5 847.5v30m-15-15h30" stroke="#5e5e5e" stroke-width="3" fill="#5e5e5e"/><path d="M807.5 847.5h30v30h-30z" fill="none"/><path d="M701 760h115.5c3.3 0 6 2.7 6 6v54" stroke="#5e5e5e" stroke-width="2" fill="none"/><path d="M701.03 760.13L700 760l1.03-.04" fill="#5e5e5e"/><path d="M822.5 835.26L817.86 821h9.28z" stroke="#5e5e5e" stroke-width="2" fill="#5e5e5e"/><path d="M701 985h115.5c3.3 0 6-2.7 6-6v-74" stroke="#5e5e5e" stroke-width="2" fill="none"/><path d="M701.03 985.13L700 985l1.03-.04" fill="#5e5e5e"/><path d="M822.5 889.74l4.64 14.26h-9.28z" stroke="#5e5e5e" stroke-width="2" fill="#5e5e5e"/><path d="M807.5 547.5h30v30h-30z" fill="none"/><path d="M807.5 562.5h30" stroke="#5e5e5e" stroke-width="3" fill="#5e5e5e"/><path d="M481 1095h575.5c3.3 0 6-2.7 6-6V985" stroke="#5e5e5e" stroke-width="2" fill="none"/><path d="M481.03 1096H480v-2h1.03" fill="#5e5e5e"/><path d="M1062.5 969.74l4.64 14.26h-9.28z" stroke="#5e5e5e" stroke-width="2" fill="#5e5e5e"/><path d="M847.5 862.5h209c3.3 0 6 2.7 6 6V900" stroke="#5e5e5e" stroke-width="2" fill="none"/><path d="M847.53 863.5h-1.03v-2h1.03" fill="#5e5e5e"/><path d="M1062.5 915.26l-4.64-14.26h9.28z" stroke="#5e5e5e" stroke-width="2" fill="#5e5e5e"/><path d="M1040 926c0-3.3 2.7-6 6-6h33c3.3 0 6 2.7 6 6v33c0 3.3-2.7 6-6 6h-33c-3.3 0-6-2.7-6-6z" stroke="#5e5e5e" stroke-width="3" fill="#fff"/><path d="M1047.5 927.5h30v30h-30z" fill="none"/><path d="M1062.5 927.5v30m-15-15h30" stroke="#5e5e5e" stroke-width="3" fill="#5e5e5e"/><path d="M1047.5 927.5h30v30h-30z" fill="none"/><path d="M1087.5 942.5h334" stroke="#5e5e5e" stroke-width="2" fill="none"/><path d="M1087.53 943.5h-1.03v-2h1.03" fill="#5e5e5e"/><path d="M1436.76 942.5l-14.26 4.64v-9.28z" stroke="#5e5e5e" stroke-width="2" fill="#5e5e5e"/><path d="M1180 1011c0-3.3 2.7-6 6-6h33c3.3 0 6 2.7 6 6v33c0 3.3-2.7 6-6 6h-33c-3.3 0-6-2.7-6-6z" stroke="#5e5e5e" stroke-width="3" fill="#fff"/><path d="M1187.5 1012.5h30v30h-30z" fill="none"/><path d="M1187.5 1027.5h30" stroke="#5e5e5e" stroke-width="3" fill="#5e5e5e"/><path d="M1227.5 1027.5h194" stroke="#5e5e5e" stroke-width="2" fill="none"/><path d="M1227.53 1028.5h-1.03v-2h1.03" fill="#5e5e5e"/><path d="M1436.76 1027.5l-14.26 4.64v-9.28z" stroke="#5e5e5e" stroke-width="2" fill="#5e5e5e"/><path d="M847.5 862.5h349c3.3 0 6 2.7 6 6V985" stroke="#5e5e5e" stroke-width="2" fill="none"/><path d="M847.53 863.5h-1.03v-2h1.03" fill="#5e5e5e"/><path d="M1202.5 1000.26l-4.64-14.26h9.28z" stroke="#5e5e5e" stroke-width="2" fill="#5e5e5e"/><path d="M481 1095h715.5c3.3 0 6-2.7 6-6v-19" stroke="#5e5e5e" stroke-width="2" fill="none"/><path d="M481.03 1096H480v-2h1.03" fill="#5e5e5e"/><path d="M1202.5 1054.74l4.64 14.26h-9.28z" stroke="#5e5e5e" stroke-width="2" fill="#5e5e5e"/><path d="M560 306c0-3.3 2.7-6 6-6h788c3.3 0 6 2.7 6 6v818c0 3.3-2.7 6-6 6H566c-3.3 0-6-2.7-6-6z" stroke="#5e5e5e" stroke-width="3" fill-opacity="0"/><path d="M461 680h43c3.3 0 6 2.7 6 6v68c0 3.3 2.7 6 6 6h124" stroke="#5e5e5e" stroke-width="2" fill="none"/><path d="M461.03 681H460v-2h1.03" fill="#5e5e5e"/><path d="M655.26 760L641 764.64v-9.28z" stroke="#5e5e5e" stroke-width="2" fill="#5e5e5e"/><path d="M500 242.67c0-3.32 2.7-6 6-6h228c3.3 0 6 2.68 6 6V294c0 3.3-2.7 6-6 6H506c-3.3 0-6-2.7-6-6z" stroke="#000" stroke-opacity="0" stroke-width="3" fill="#fff" fill-opacity="0"/><use xlink:href="#j" transform="matrix(1,0,0,1,505,241.6666666666667) translate(65.74074074074076 38.93055555555554)"/><path d="M1380 338.67c0-3.32 2.7-6 6-6h228c3.3 0 6 2.68 6 6v48c0 3.3-2.7 6-6 6h-228c-3.3 0-6-2.7-6-6z" stroke="#000" stroke-opacity="0" stroke-width="3" fill="#fff" fill-opacity="0"/><use xlink:href="#k" transform="matrix(1,0,0,1,1385,337.6666666666667) translate(40.765432098765444 31.138888888888886)"/><path d="M1380 538.5c0-3.3 2.7-6 6-6h228c3.3 0 6 2.7 6 6v48c0 3.3-2.7 6-6 6h-228c-3.3 0-6-2.7-6-6z" stroke="#000" stroke-opacity="0" stroke-width="3" fill="#fff" fill-opacity="0"/><use xlink:href="#l" transform="matrix(1,0,0,1,1385,537.5) translate(40.765432098765444 31.138888888888886)"/><path d="M1380 868.5c0-3.3 2.7-6 6-6h228c3.3 0 6 2.7 6 6v48c0 3.3-2.7 6-6 6h-228c-3.3 0-6-2.7-6-6z" stroke="#000" stroke-opacity="0" stroke-width="3" fill="#fff" fill-opacity="0"/><g><use xlink:href="#m" transform="matrix(1,0,0,1,1385,867.5) translate(46.77160493827162 31.138888888888886)"/></g><path d="M1380 1046c0-3.3 2.7-6 6-6h228c3.3 0 6 2.7 6 6v48c0 3.3-2.7 6-6 6h-228c-3.3 0-6-2.7-6-6z" stroke="#000" stroke-opacity="0" stroke-width="3" fill="#fff" fill-opacity="0"/><g><use xlink:href="#n" transform="matrix(1,0,0,1,1385,1045) translate(46.77160493827162 31.138888888888886)"/></g><defs><path fill="#333" d="M33 0v-248h34V0H33" id="o"/><path fill="#333" d="M117-194c89-4 53 116 60 194h-32v-121c0-31-8-49-39-48C34-167 62-67 57 0H25l-1-190h30c1 10-1 24 2 32 11-22 29-35 61-36" id="p"/><path fill="#333" d="M115-194c55 1 70 41 70 98S169 2 115 4C84 4 66-9 55-30l1 105H24l-1-265h31l2 30c10-21 28-34 59-34zm-8 174c40 0 45-34 45-75s-6-73-45-74c-42 0-51 32-51 76 0 43 10 73 51 73" id="q"/><path fill="#333" d="M84 4C-5 8 30-112 23-190h32v120c0 31 7 50 39 49 72-2 45-101 50-169h31l1 190h-30c-1-10 1-25-2-33-11 22-28 36-60 37" id="r"/><path fill="#333" d="M59-47c-2 24 18 29 38 22v24C64 9 27 4 27-40v-127H5v-23h24l9-43h21v43h35v23H59v120" id="s"/><g id="a"><use transform="matrix(0.08641975308641973,0,0,0.08641975308641973,0,0)" xlink:href="#o"/><use transform="matrix(0.08641975308641973,0,0,0.08641975308641973,8.641975308641973,0)" xlink:href="#p"/><use transform="matrix(0.08641975308641973,0,0,0.08641975308641973,25.925925925925917,0)" xlink:href="#q"/><use transform="matrix(0.08641975308641973,0,0,0.08641975308641973,43.20987654320986,0)" xlink:href="#r"/><use transform="matrix(0.08641975308641973,0,0,0.08641975308641973,60.4938271604938,0)" xlink:href="#s"/></g><path fill="#333" d="M27 0v-27h64v-190l-56 39v-29l58-41h29v221h61V0H27" id="t"/><path fill="#333" d="M-5 72V49h209v23H-5" id="u"/><path fill="#333" d="M233-177c-1 41-23 64-60 70L243 0h-38l-65-103H63V0H30v-248c88 3 205-21 203 71zM63-129c60-2 137 13 137-47 0-61-80-42-137-45v92" id="v"/><path fill="#333" d="M100-194c63 0 86 42 84 106H49c0 40 14 67 53 68 26 1 43-12 49-29l28 8c-11 28-37 45-77 45C44 4 14-33 15-96c1-61 26-98 85-98zm52 81c6-60-76-77-97-28-3 7-6 17-6 28h103" id="w"/><path fill="#333" d="M141-36C126-15 110 5 73 4 37 3 15-17 15-53c-1-64 63-63 125-63 3-35-9-54-41-54-24 1-41 7-42 31l-33-3c5-37 33-52 76-52 45 0 72 20 72 64v82c-1 20 7 32 28 27v20c-31 9-61-2-59-35zM48-53c0 20 12 33 32 33 41-3 63-29 60-74-43 2-92-5-92 41" id="x"/><path fill="#333" d="M24 0v-261h32V0H24" id="y"/><g id="b"><use transform="matrix(0.08641975308641973,0,0,0.08641975308641973,0,0)" xlink:href="#t"/><use transform="matrix(0.08641975308641973,0,0,0.08641975308641973,17.283950617283946,0)" xlink:href="#u"/><use transform="matrix(0.08641975308641973,0,0,0.08641975308641973,34.56790123456789,0)" xlink:href="#v"/><use transform="matrix(0.08641975308641973,0,0,0.08641975308641973,56.950617283950606,0)" xlink:href="#w"/><use transform="matrix(0.08641975308641973,0,0,0.08641975308641973,74.23456790123456,0)" xlink:href="#x"/><use transform="matrix(0.08641975308641973,0,0,0.08641975308641973,91.5185185185185,0)" xlink:href="#y"/></g><path fill="#333" d="M210-169c-67 3-38 105-44 169h-31v-121c0-29-5-50-35-48C34-165 62-65 56 0H25l-1-190h30c1 10-1 24 2 32 10-44 99-50 107 0 11-21 27-35 58-36 85-2 47 119 55 194h-31v-121c0-29-5-49-35-48" id="z"/><path fill="#333" d="M177-190C167-65 218 103 67 71c-23-6-38-20-44-43l32-5c15 47 100 32 89-28v-30C133-14 115 1 83 1 29 1 15-40 15-95c0-56 16-97 71-98 29-1 48 16 59 35 1-10 0-23 2-32h30zM94-22c36 0 50-32 50-73 0-42-14-75-50-75-39 0-46 34-46 75s6 73 46 73" id="A"/><g id="c"><use transform="matrix(0.08641975308641973,0,0,0.08641975308641973,0,0)" xlink:href="#t"/><use transform="matrix(0.08641975308641973,0,0,0.08641975308641973,17.283950617283946,0)" xlink:href="#u"/><use transform="matrix(0.08641975308641973,0,0,0.08641975308641973,34.56790123456789,0)" xlink:href="#o"/><use transform="matrix(0.08641975308641973,0,0,0.08641975308641973,43.209876543209866,0)" xlink:href="#z"/><use transform="matrix(0.08641975308641973,0,0,0.08641975308641973,69.04938271604937,0)" xlink:href="#A"/></g><path fill="#333" d="M266 0h-40l-56-210L115 0H75L2-248h35L96-30l15-64 43-154h32l59 218 59-218h35" id="B"/><g id="d"><use transform="matrix(0.08641975308641973,0,0,0.08641975308641973,0,0)" xlink:href="#B"/><use transform="matrix(0.08641975308641973,0,0,0.08641975308641973,29.29629629629629,0)" xlink:href="#u"/><use transform="matrix(0.08641975308641973,0,0,0.08641975308641973,46.58024691358024,0)" xlink:href="#v"/><use transform="matrix(0.08641975308641973,0,0,0.08641975308641973,68.96296296296295,0)" xlink:href="#w"/><use transform="matrix(0.08641975308641973,0,0,0.08641975308641973,86.2469135802469,0)" xlink:href="#x"/><use transform="matrix(0.08641975308641973,0,0,0.08641975308641973,103.53086419753085,0)" xlink:href="#y"/></g><g id="e"><use transform="matrix(0.08641975308641976,0,0,0.08641975308641976,0,0)" xlink:href="#B"/><use transform="matrix(0.08641975308641976,0,0,0.08641975308641976,29.296296296296298,0)" xlink:href="#u"/><use transform="matrix(0.08641975308641976,0,0,0.08641975308641976,46.580246913580254,0)" xlink:href="#o"/><use transform="matrix(0.08641975308641976,0,0,0.08641975308641976,55.22222222222223,0)" xlink:href="#z"/><use transform="matrix(0.08641975308641976,0,0,0.08641975308641976,81.06172839506173,0)" xlink:href="#A"/></g><g id="f"><use transform="matrix(0.08641975308641976,0,0,0.08641975308641976,0,0)" xlink:href="#o"/><use transform="matrix(0.08641975308641976,0,0,0.08641975308641976,8.641975308641976,0)" xlink:href="#p"/><use transform="matrix(0.08641975308641976,0,0,0.08641975308641976,25.925925925925927,0)" xlink:href="#q"/><use transform="matrix(0.08641975308641976,0,0,0.08641975308641976,43.20987654320989,0)" xlink:href="#r"/><use transform="matrix(0.08641975308641976,0,0,0.08641975308641976,60.49382716049384,0)" xlink:href="#s"/></g><path fill="#333" d="M101-251c82-7 93 87 43 132L82-64C71-53 59-42 53-27h129V0H18c2-99 128-94 128-182 0-28-16-43-45-43s-46 15-49 41l-32-3c6-41 34-60 81-64" id="C"/><g id="g"><use transform="matrix(0.08641975308641976,0,0,0.08641975308641976,0,0)" xlink:href="#C"/><use transform="matrix(0.08641975308641976,0,0,0.08641975308641976,17.283950617283953,0)" xlink:href="#u"/><use transform="matrix(0.08641975308641976,0,0,0.08641975308641976,34.567901234567906,0)" xlink:href="#o"/><use transform="matrix(0.08641975308641976,0,0,0.08641975308641976,43.20987654320988,0)" xlink:href="#z"/><use transform="matrix(0.08641975308641976,0,0,0.08641975308641976,69.0493827160494,0)" xlink:href="#A"/></g><g id="h"><use transform="matrix(0.08641975308641973,0,0,0.08641975308641973,0,0)" xlink:href="#C"/><use transform="matrix(0.08641975308641973,0,0,0.08641975308641973,17.283950617283946,0)" xlink:href="#u"/><use transform="matrix(0.08641975308641973,0,0,0.08641975308641973,34.56790123456789,0)" xlink:href="#v"/><use transform="matrix(0.08641975308641973,0,0,0.08641975308641973,56.950617283950606,0)" xlink:href="#w"/><use transform="matrix(0.08641975308641973,0,0,0.08641975308641973,74.23456790123456,0)" xlink:href="#x"/><use transform="matrix(0.08641975308641973,0,0,0.08641975308641973,91.5185185185185,0)" xlink:href="#y"/></g><g id="i"><use transform="matrix(0.08641975308641976,0,0,0.08641975308641976,0,0)" xlink:href="#B"/><use transform="matrix(0.08641975308641976,0,0,0.08641975308641976,29.296296296296298,0)" xlink:href="#u"/><use transform="matrix(0.08641975308641976,0,0,0.08641975308641976,46.580246913580254,0)" xlink:href="#v"/><use transform="matrix(0.08641975308641976,0,0,0.08641975308641976,68.96296296296298,0)" xlink:href="#w"/><use transform="matrix(0.08641975308641976,0,0,0.08641975308641976,86.24691358024693,0)" xlink:href="#x"/><use transform="matrix(0.08641975308641976,0,0,0.08641975308641976,103.53086419753087,0)" xlink:href="#y"/></g><path fill="#333" d="M240 0l2-218c-23 76-54 145-80 218h-23L58-218 59 0H30v-248h44l77 211c21-75 51-140 76-211h43V0h-30" id="D"/><path fill="#333" d="M205 0l-28-72H64L36 0H1l101-248h38L239 0h-34zm-38-99l-47-123c-12 45-31 82-46 123h93" id="E"/><path fill="#333" d="M212-179c-10-28-35-45-73-45-59 0-87 40-87 99 0 60 29 101 89 101 43 0 62-24 78-52l27 14C228-24 195 4 139 4 59 4 22-46 18-125c-6-104 99-153 187-111 19 9 31 26 39 46" id="F"/><g id="j"><use transform="matrix(0.12345679012345674,0,0,0.12345679012345674,0,0)" xlink:href="#D"/><use transform="matrix(0.12345679012345674,0,0,0.12345679012345674,36.91358024691357,0)" xlink:href="#E"/><use transform="matrix(0.12345679012345674,0,0,0.12345679012345674,66.54320987654319,0)" xlink:href="#F"/></g><path fill="#333" d="M140-251c81 0 123 46 123 126C263-46 219 4 140 4 59 4 17-45 17-125s42-126 123-126zm0 227c63 0 89-41 89-101s-29-99-89-99c-61 0-89 39-89 99S79-25 140-24" id="G"/><g id="k"><use transform="matrix(0.08641975308641973,0,0,0.08641975308641973,0,0)" xlink:href="#G"/><use transform="matrix(0.08641975308641973,0,0,0.08641975308641973,24.197530864197525,0)" xlink:href="#r"/><use transform="matrix(0.08641975308641973,0,0,0.08641975308641973,41.48148148148147,0)" xlink:href="#s"/><use transform="matrix(0.08641975308641973,0,0,0.08641975308641973,50.12345679012345,0)" xlink:href="#t"/><use transform="matrix(0.08641975308641973,0,0,0.08641975308641973,67.40740740740739,0)" xlink:href="#u"/><use transform="matrix(0.08641975308641973,0,0,0.08641975308641973,84.69135802469134,0)" xlink:href="#v"/><use transform="matrix(0.08641975308641973,0,0,0.08641975308641973,107.07407407407405,0)" xlink:href="#w"/><use transform="matrix(0.08641975308641973,0,0,0.08641975308641973,124.358024691358,0)" xlink:href="#x"/><use transform="matrix(0.08641975308641973,0,0,0.08641975308641973,141.64197530864195,0)" xlink:href="#y"/></g><g id="l"><use transform="matrix(0.08641975308641973,0,0,0.08641975308641973,0,0)" xlink:href="#G"/><use transform="matrix(0.08641975308641973,0,0,0.08641975308641973,24.197530864197525,0)" xlink:href="#r"/><use transform="matrix(0.08641975308641973,0,0,0.08641975308641973,41.48148148148147,0)" xlink:href="#s"/><use transform="matrix(0.08641975308641973,0,0,0.08641975308641973,50.12345679012345,0)" xlink:href="#C"/><use transform="matrix(0.08641975308641973,0,0,0.08641975308641973,67.40740740740739,0)" xlink:href="#u"/><use transform="matrix(0.08641975308641973,0,0,0.08641975308641973,84.69135802469134,0)" xlink:href="#v"/><use transform="matrix(0.08641975308641973,0,0,0.08641975308641973,107.07407407407405,0)" xlink:href="#w"/><use transform="matrix(0.08641975308641973,0,0,0.08641975308641973,124.358024691358,0)" xlink:href="#x"/><use transform="matrix(0.08641975308641973,0,0,0.08641975308641973,141.64197530864195,0)" xlink:href="#y"/></g><g id="m"><use transform="matrix(0.08641975308641973,0,0,0.08641975308641973,0,0)" xlink:href="#G"/><use transform="matrix(0.08641975308641973,0,0,0.08641975308641973,24.197530864197525,0)" xlink:href="#r"/><use transform="matrix(0.08641975308641973,0,0,0.08641975308641973,41.48148148148147,0)" xlink:href="#s"/><use transform="matrix(0.08641975308641973,0,0,0.08641975308641973,50.12345679012345,0)" xlink:href="#t"/><use transform="matrix(0.08641975308641973,0,0,0.08641975308641973,67.40740740740739,0)" xlink:href="#u"/><use transform="matrix(0.08641975308641973,0,0,0.08641975308641973,84.69135802469134,0)" xlink:href="#o"/><use transform="matrix(0.08641975308641973,0,0,0.08641975308641973,93.33333333333331,0)" xlink:href="#z"/><use transform="matrix(0.08641975308641973,0,0,0.08641975308641973,119.17283950617282,0)" xlink:href="#A"/></g><g id="n"><use transform="matrix(0.08641975308641973,0,0,0.08641975308641973,0,0)" xlink:href="#G"/><use transform="matrix(0.08641975308641973,0,0,0.08641975308641973,24.197530864197525,0)" xlink:href="#r"/><use transform="matrix(0.08641975308641973,0,0,0.08641975308641973,41.48148148148147,0)" xlink:href="#s"/><use transform="matrix(0.08641975308641973,0,0,0.08641975308641973,50.12345679012345,0)" xlink:href="#C"/><use transform="matrix(0.08641975308641973,0,0,0.08641975308641973,67.40740740740739,0)" xlink:href="#u"/><use transform="matrix(0.08641975308641973,0,0,0.08641975308641973,84.69135802469134,0)" xlink:href="#o"/><use transform="matrix(0.08641975308641973,0,0,0.08641975308641973,93.33333333333331,0)" xlink:href="#z"/><use transform="matrix(0.08641975308641973,0,0,0.08641975308641973,119.17283950617282,0)" xlink:href="#A"/></g></defs></g></svg>